<mxfile host="app.diagrams.net" modified="2021-09-20T14:11:10.706Z" agent="5.0 (Windows NT 10.0; Win64; x64) AppleWebKit/537.36 (KHTML, like Gecko) Chrome/93.0.4577.82 Safari/537.36" etag="UooozpOnPFFPwV3zAcki" version="15.2.9" type="gitlab">
  <diagram id="no-I34PgQNSc7qd5f456" name="Page-1">
    <mxGraphModel dx="1913" dy="1711" grid="1" gridSize="10" guides="1" tooltips="1" connect="1" arrows="1" fold="1" page="1" pageScale="1" pageWidth="850" pageHeight="1100" math="0" shadow="0">
      <root>
        <mxCell id="0" />
        <mxCell id="1" parent="0" />
        <mxCell id="sQ-yzTQUujYXLG8IeTuD-1" value="Lexer" style="rounded=1;whiteSpace=wrap;html=1;fillColor=#f8cecc;strokeColor=#b85450;" vertex="1" parent="1">
          <mxGeometry x="120" y="120" width="110" height="60" as="geometry" />
        </mxCell>
        <mxCell id="sQ-yzTQUujYXLG8IeTuD-2" value="" style="edgeStyle=orthogonalEdgeStyle;curved=1;rounded=0;orthogonalLoop=1;jettySize=auto;html=1;exitX=1;exitY=0.5;exitDx=0;exitDy=0;" edge="1" parent="1" source="sQ-yzTQUujYXLG8IeTuD-1" target="sQ-yzTQUujYXLG8IeTuD-4">
          <mxGeometry relative="1" as="geometry">
            <mxPoint x="460" y="370" as="sourcePoint" />
          </mxGeometry>
        </mxCell>
        <mxCell id="sQ-yzTQUujYXLG8IeTuD-33" style="edgeStyle=orthogonalEdgeStyle;rounded=0;orthogonalLoop=1;jettySize=auto;html=1;exitX=1;exitY=0.5;exitDx=0;exitDy=0;entryX=0;entryY=0.5;entryDx=0;entryDy=0;" edge="1" parent="1" source="sQ-yzTQUujYXLG8IeTuD-4" target="sQ-yzTQUujYXLG8IeTuD-6">
          <mxGeometry relative="1" as="geometry" />
        </mxCell>
        <mxCell id="sQ-yzTQUujYXLG8IeTuD-4" value="&lt;br&gt;Parser" style="whiteSpace=wrap;html=1;verticalAlign=top;strokeColor=#b85450;fillColor=#f8cecc;rounded=1;glass=0;shadow=0;sketch=0;" vertex="1" parent="1">
          <mxGeometry x="260" y="120" width="120" height="60" as="geometry" />
        </mxCell>
        <mxCell id="sQ-yzTQUujYXLG8IeTuD-5" value="" style="edgeStyle=orthogonalEdgeStyle;curved=1;rounded=0;orthogonalLoop=1;jettySize=auto;html=1;entryX=1;entryY=0.5;entryDx=0;entryDy=0;exitX=1;exitY=0.5;exitDx=0;exitDy=0;" edge="1" parent="1" source="sQ-yzTQUujYXLG8IeTuD-6" target="sQ-yzTQUujYXLG8IeTuD-10">
          <mxGeometry relative="1" as="geometry">
            <mxPoint x="660" y="640" as="targetPoint" />
          </mxGeometry>
        </mxCell>
        <mxCell id="sQ-yzTQUujYXLG8IeTuD-6" value="&lt;br&gt;Visitor" style="whiteSpace=wrap;html=1;verticalAlign=top;strokeColor=#b85450;fillColor=#f8cecc;rounded=1;glass=0;shadow=0;sketch=0;" vertex="1" parent="1">
          <mxGeometry x="420" y="120" width="120" height="60" as="geometry" />
        </mxCell>
        <mxCell id="sQ-yzTQUujYXLG8IeTuD-35" style="edgeStyle=orthogonalEdgeStyle;rounded=0;orthogonalLoop=1;jettySize=auto;html=1;exitX=0.5;exitY=1;exitDx=0;exitDy=0;entryX=0.5;entryY=0;entryDx=0;entryDy=0;" edge="1" parent="1" source="sQ-yzTQUujYXLG8IeTuD-10" target="sQ-yzTQUujYXLG8IeTuD-18">
          <mxGeometry relative="1" as="geometry" />
        </mxCell>
        <mxCell id="sQ-yzTQUujYXLG8IeTuD-10" value="&lt;h2 style=&quot;box-sizing: inherit ; padding: 0px ; margin: 0px 0px 0.5em ; line-height: 40px ; color: rgb(34 , 34 , 34)&quot;&gt;&lt;span style=&quot;font-size: 12px ; font-weight: normal ; line-height: 123%&quot;&gt;Intermediate Code Generation&lt;/span&gt;&lt;br&gt;&lt;/h2&gt;" style="whiteSpace=wrap;html=1;verticalAlign=top;strokeColor=#b85450;fillColor=#f8cecc;rounded=1;glass=0;shadow=0;sketch=0;" vertex="1" parent="1">
          <mxGeometry x="490" y="200" width="120" height="80" as="geometry" />
        </mxCell>
        <mxCell id="sQ-yzTQUujYXLG8IeTuD-13" style="edgeStyle=orthogonalEdgeStyle;rounded=0;orthogonalLoop=1;jettySize=auto;html=1;entryX=0.5;entryY=1;entryDx=0;entryDy=0;fillColor=#e1d5e7;strokeColor=#9673a6;curved=1;strokeWidth=3;endArrow=oval;endFill=1;" edge="1" parent="1" source="sQ-yzTQUujYXLG8IeTuD-16" target="sQ-yzTQUujYXLG8IeTuD-10">
          <mxGeometry relative="1" as="geometry" />
        </mxCell>
        <mxCell id="sQ-yzTQUujYXLG8IeTuD-14" style="edgeStyle=orthogonalEdgeStyle;rounded=0;orthogonalLoop=1;jettySize=auto;html=1;entryX=0.5;entryY=1;entryDx=0;entryDy=0;fillColor=#e1d5e7;strokeColor=#9673a6;curved=1;strokeWidth=3;endArrow=oval;endFill=1;" edge="1" parent="1" source="sQ-yzTQUujYXLG8IeTuD-16" target="sQ-yzTQUujYXLG8IeTuD-6">
          <mxGeometry relative="1" as="geometry" />
        </mxCell>
        <mxCell id="sQ-yzTQUujYXLG8IeTuD-15" style="edgeStyle=orthogonalEdgeStyle;rounded=0;orthogonalLoop=1;jettySize=auto;html=1;entryX=0.5;entryY=1;entryDx=0;entryDy=0;fillColor=#e1d5e7;strokeColor=#9673a6;curved=1;strokeWidth=3;endArrow=oval;endFill=1;exitX=1;exitY=0.571;exitDx=0;exitDy=0;exitPerimeter=0;" edge="1" parent="1" source="sQ-yzTQUujYXLG8IeTuD-16" target="sQ-yzTQUujYXLG8IeTuD-4">
          <mxGeometry relative="1" as="geometry">
            <mxPoint x="210" y="285" as="sourcePoint" />
          </mxGeometry>
        </mxCell>
        <mxCell id="sQ-yzTQUujYXLG8IeTuD-16" value="Symbol Table" style="strokeWidth=2;html=1;shape=mxgraph.flowchart.database;whiteSpace=wrap;rounded=1;shadow=0;glass=0;sketch=0;fillColor=#fff2cc;strokeColor=#d6b656;" vertex="1" parent="1">
          <mxGeometry x="70" y="280" width="80" height="70" as="geometry" />
        </mxCell>
        <mxCell id="sQ-yzTQUujYXLG8IeTuD-17" value="" style="edgeStyle=orthogonalEdgeStyle;curved=1;rounded=0;orthogonalLoop=1;jettySize=auto;html=1;" edge="1" parent="1" source="sQ-yzTQUujYXLG8IeTuD-18" target="sQ-yzTQUujYXLG8IeTuD-19">
          <mxGeometry relative="1" as="geometry" />
        </mxCell>
        <mxCell id="sQ-yzTQUujYXLG8IeTuD-36" style="edgeStyle=orthogonalEdgeStyle;rounded=0;orthogonalLoop=1;jettySize=auto;html=1;exitX=0.5;exitY=1;exitDx=0;exitDy=0;entryX=0.5;entryY=0;entryDx=0;entryDy=0;" edge="1" parent="1" source="sQ-yzTQUujYXLG8IeTuD-19" target="sQ-yzTQUujYXLG8IeTuD-31">
          <mxGeometry relative="1" as="geometry" />
        </mxCell>
        <mxCell id="sQ-yzTQUujYXLG8IeTuD-19" value="Executable&lt;br&gt;File" style="rhombus;whiteSpace=wrap;html=1;rounded=1;shadow=0;glass=0;sketch=0;fillColor=#dae8fc;strokeColor=#6c8ebf;" vertex="1" parent="1">
          <mxGeometry x="390" y="420" width="90" height="100" as="geometry" />
        </mxCell>
        <mxCell id="sQ-yzTQUujYXLG8IeTuD-22" style="edgeStyle=orthogonalEdgeStyle;rounded=0;orthogonalLoop=1;jettySize=auto;html=1;exitX=1;exitY=0.5;exitDx=0;exitDy=0;entryX=0;entryY=0.5;entryDx=0;entryDy=0;" edge="1" parent="1" source="sQ-yzTQUujYXLG8IeTuD-20" target="sQ-yzTQUujYXLG8IeTuD-23">
          <mxGeometry relative="1" as="geometry">
            <mxPoint x="350" y="30" as="targetPoint" />
          </mxGeometry>
        </mxCell>
        <mxCell id="sQ-yzTQUujYXLG8IeTuD-20" value=":לדוג&#39;&amp;nbsp;cmd הרצת התוכנית מה&lt;br&gt;compiler.exe *-flag-* codeFile.ourLanguage resFile.exe" style="rounded=1;whiteSpace=wrap;html=1;fillColor=#f8cecc;strokeColor=#b85450;" vertex="1" parent="1">
          <mxGeometry x="-270" width="550" height="60" as="geometry" />
        </mxCell>
        <mxCell id="sQ-yzTQUujYXLG8IeTuD-24" style="edgeStyle=orthogonalEdgeStyle;rounded=0;orthogonalLoop=1;jettySize=auto;html=1;exitX=0.5;exitY=1;exitDx=0;exitDy=0;" edge="1" parent="1" source="sQ-yzTQUujYXLG8IeTuD-23">
          <mxGeometry relative="1" as="geometry">
            <mxPoint x="170" y="120" as="targetPoint" />
            <Array as="points">
              <mxPoint x="383" y="95" />
              <mxPoint x="170" y="95" />
            </Array>
          </mxGeometry>
        </mxCell>
        <mxCell id="sQ-yzTQUujYXLG8IeTuD-27" style="edgeStyle=orthogonalEdgeStyle;rounded=0;orthogonalLoop=1;jettySize=auto;html=1;exitX=1;exitY=0.5;exitDx=0;exitDy=0;" edge="1" parent="1" source="sQ-yzTQUujYXLG8IeTuD-23">
          <mxGeometry relative="1" as="geometry">
            <mxPoint x="510" y="29.666666666666742" as="targetPoint" />
          </mxGeometry>
        </mxCell>
        <mxCell id="sQ-yzTQUujYXLG8IeTuD-23" value="&lt;span&gt;which flag?&lt;/span&gt;" style="rhombus;whiteSpace=wrap;html=1;" vertex="1" parent="1">
          <mxGeometry x="340" y="-15" width="85" height="90" as="geometry" />
        </mxCell>
        <mxCell id="sQ-yzTQUujYXLG8IeTuD-25" value="none" style="text;html=1;align=center;verticalAlign=middle;resizable=0;points=[];autosize=1;strokeColor=none;fillColor=none;" vertex="1" parent="1">
          <mxGeometry x="280" y="70" width="40" height="20" as="geometry" />
        </mxCell>
        <mxCell id="sQ-yzTQUujYXLG8IeTuD-28" value="help" style="text;html=1;align=center;verticalAlign=middle;resizable=0;points=[];autosize=1;strokeColor=none;fillColor=none;" vertex="1" parent="1">
          <mxGeometry x="440" y="10" width="40" height="20" as="geometry" />
        </mxCell>
        <mxCell id="sQ-yzTQUujYXLG8IeTuD-32" style="edgeStyle=orthogonalEdgeStyle;rounded=0;orthogonalLoop=1;jettySize=auto;html=1;exitX=1;exitY=0.5;exitDx=0;exitDy=0;entryX=1;entryY=0.5;entryDx=0;entryDy=0;" edge="1" parent="1" source="sQ-yzTQUujYXLG8IeTuD-29" target="sQ-yzTQUujYXLG8IeTuD-31">
          <mxGeometry relative="1" as="geometry">
            <mxPoint x="530" y="950" as="targetPoint" />
            <Array as="points">
              <mxPoint x="800" y="30" />
              <mxPoint x="800" y="580" />
            </Array>
          </mxGeometry>
        </mxCell>
        <mxCell id="sQ-yzTQUujYXLG8IeTuD-29" value="הדפסת רשימת הדגלים" style="rounded=1;whiteSpace=wrap;html=1;" vertex="1" parent="1">
          <mxGeometry x="510" width="120" height="60" as="geometry" />
        </mxCell>
        <mxCell id="sQ-yzTQUujYXLG8IeTuD-31" value="end" style="rhombus;whiteSpace=wrap;html=1;fillColor=#fff2cc;strokeColor=#d6b656;" vertex="1" parent="1">
          <mxGeometry x="395" y="540" width="80" height="80" as="geometry" />
        </mxCell>
        <mxCell id="sQ-yzTQUujYXLG8IeTuD-18" value="&lt;br&gt;Assembler" style="whiteSpace=wrap;html=1;verticalAlign=top;strokeColor=#b85450;fillColor=#f8cecc;rounded=1;glass=0;shadow=0;sketch=0;" vertex="1" parent="1">
          <mxGeometry x="490" y="330" width="120" height="60" as="geometry" />
        </mxCell>
      </root>
    </mxGraphModel>
  </diagram>
</mxfile>
